{
	"asset":{
		"generator":"Khronos glTF Blender I/O v4.1.63",
		"version":"2.0"
	},
	"scene":0,
	"scenes":[
		{
			"name":"Scene",
			"nodes":[
				0
			]
		}
	],
	"nodes":[
		{
			"mesh":0,
			"name":"foamBulletA",
			"rotation":[
				0,
				-0.7071068286895752,
				0.7071068286895752,
				4.214685134229512e-08
			]
		}
	],
	"materials":[
		{
			"name":"yellow",
			"pbrMetallicRoughness":{
				"baseColorFactor":[
					0.9911022186279297,
					0.5647116303443909,
					0.03954622521996498,
					1
				]
			}
		}
	],
	"meshes":[
		{
			"name":"Mesh foamBulletA",
			"primitives":[
				{
					"attributes":{
						"POSITION":0,
						"NORMAL":1,
						"TEXCOORD_0":2
					},
					"indices":3,
					"material":0
				}
			]
		}
	],
	"accessors":[
		{
			"bufferView":0,
			"componentType":5126,
			"count":144,
			"max":[
				0.009999999776482582,
				0.02500000037252903,
				0.009999999776482582
			],
			"min":[
				-0.009999999776482582,
				-0.02500000037252903,
				-0.009999999776482582
			],
			"type":"VEC3"
		},
		{
			"bufferView":1,
			"componentType":5126,
			"count":144,
			"type":"VEC3"
		},
		{
			"bufferView":2,
			"componentType":5126,
			"count":144,
			"type":"VEC2"
		},
		{
			"bufferView":3,
			"componentType":5123,
			"count":276,
			"type":"SCALAR"
		}
	],
	"bufferViews":[
		{
			"buffer":0,
			"byteLength":1728,
			"byteOffset":0,
			"target":34962
		},
		{
			"buffer":0,
			"byteLength":1728,
			"byteOffset":1728,
			"target":34962
		},
		{
			"buffer":0,
			"byteLength":1152,
			"byteOffset":3456,
			"target":34962
		},
		{
			"buffer":0,
			"byteLength":552,
			"byteOffset":4608,
			"target":34963
		}
	],
	"buffers":[
		{
			"byteLength":5160,
			"uri":"Bullet.bin"
		}
	]
}
