{
	"asset":{
		"generator":"Khronos glTF Blender I/O v4.1.63",
		"version":"2.0"
	},
	"scene":0,
	"scenes":[
		{
			"name":"Scene",
			"nodes":[
				1
			]
		}
	],
	"nodes":[
		{
			"mesh":0,
			"name":"COL01",
			"rotation":[
				0,
				-0.7071068286895752,
				0,
				0.7071068286895752
			],
			"scale":[
				0.6379585266113281,
				1.139211654663086,
				0.6379585266113281
			],
			"translation":[
				0,
				1.139211654663086,
				0
			]
		},
		{
			"children":[
				0
			],
			"mesh":1,
			"name":"ShowerRoom",
			"rotation":[
				0,
				0.7071068286895752,
				0,
				0.7071068286895752
			],
			"scale":[
				0.4388999938964844,
				0.4388999938964844,
				0.4388999938964844
			]
		}
	],
	"materials":[
		{
			"name":"carpetWhite",
			"pbrMetallicRoughness":{
				"baseColorFactor":[
					0.9725490212440491,
					1,
					1,
					1
				],
				"metallicFactor":0
			}
		},
		{
			"name":"metalDark",
			"pbrMetallicRoughness":{
				"baseColorFactor":[
					0.30588236451148987,
					0.38823530077934265,
					0.38823530077934265,
					1
				],
				"metallicFactor":0
			}
		},
		{
			"alphaMode":"BLEND",
			"name":"glass",
			"pbrMetallicRoughness":{
				"baseColorFactor":[
					0.6980392336845398,
					0.8274509906768799,
					0.7686274647712708,
					0.5
				],
				"metallicFactor":0
			}
		},
		{
			"name":"metal",
			"pbrMetallicRoughness":{
				"baseColorFactor":[
					0.7406105399131775,
					0.8228667378425598,
					0.8396226167678833,
					1
				],
				"metallicFactor":0
			}
		}
	],
	"meshes":[
		{
			"name":"\u7acb\u65b9\u4f53",
			"primitives":[
				{
					"attributes":{
						"POSITION":0,
						"NORMAL":1,
						"TEXCOORD_0":2
					},
					"indices":3
				}
			]
		},
		{
			"name":"Mesh shower",
			"primitives":[
				{
					"attributes":{
						"POSITION":4,
						"NORMAL":5,
						"TEXCOORD_0":6
					},
					"indices":7,
					"material":0
				},
				{
					"attributes":{
						"POSITION":8,
						"NORMAL":9,
						"TEXCOORD_0":10
					},
					"indices":11,
					"material":1
				},
				{
					"attributes":{
						"POSITION":12,
						"NORMAL":13,
						"TEXCOORD_0":14
					},
					"indices":15,
					"material":2
				},
				{
					"attributes":{
						"POSITION":16,
						"NORMAL":17,
						"TEXCOORD_0":18
					},
					"indices":19,
					"material":3
				}
			]
		}
	],
	"accessors":[
		{
			"bufferView":0,
			"componentType":5126,
			"count":24,
			"max":[
				1,
				1,
				1
			],
			"min":[
				-1,
				-1,
				-1
			],
			"type":"VEC3"
		},
		{
			"bufferView":1,
			"componentType":5126,
			"count":24,
			"type":"VEC3"
		},
		{
			"bufferView":2,
			"componentType":5126,
			"count":24,
			"type":"VEC2"
		},
		{
			"bufferView":3,
			"componentType":5123,
			"count":36,
			"type":"SCALAR"
		},
		{
			"bufferView":4,
			"componentType":5126,
			"count":1113,
			"max":[
				0.6420414447784424,
				2.492670774459839,
				0.6379585266113281
			],
			"min":[
				-0.6379585266113281,
				0,
				-0.6420414447784424
			],
			"type":"VEC3"
		},
		{
			"bufferView":5,
			"componentType":5126,
			"count":1113,
			"type":"VEC3"
		},
		{
			"bufferView":6,
			"componentType":5126,
			"count":1113,
			"type":"VEC2"
		},
		{
			"bufferView":7,
			"componentType":5123,
			"count":2220,
			"type":"SCALAR"
		},
		{
			"bufferView":8,
			"componentType":5126,
			"count":6,
			"max":[
				-0.13112425804138184,
				0.17999999225139618,
				-0.14448916912078857
			],
			"min":[
				-0.26968830823898315,
				0.17999999225139618,
				-0.26448917388916016
			],
			"type":"VEC3"
		},
		{
			"bufferView":9,
			"componentType":5126,
			"count":6,
			"type":"VEC3"
		},
		{
			"bufferView":10,
			"componentType":5126,
			"count":6,
			"type":"VEC2"
		},
		{
			"bufferView":11,
			"componentType":5123,
			"count":12,
			"type":"SCALAR"
		},
		{
			"bufferView":12,
			"componentType":5126,
			"count":28,
			"max":[
				0.581421971321106,
				2.4126710891723633,
				0.6379585266113281
			],
			"min":[
				-0.6379586458206177,
				0.2800000011920929,
				-0.6420414447784424
			],
			"type":"VEC3"
		},
		{
			"bufferView":13,
			"componentType":5126,
			"count":28,
			"type":"VEC3"
		},
		{
			"bufferView":14,
			"componentType":5126,
			"count":28,
			"type":"VEC2"
		},
		{
			"bufferView":15,
			"componentType":5123,
			"count":54,
			"type":"SCALAR"
		},
		{
			"bufferView":16,
			"componentType":5126,
			"count":20,
			"max":[
				-0.6379585266113281,
				1.4495303630828857,
				0.09946584701538086
			],
			"min":[
				-0.6835269927978516,
				1.20222806930542,
				0.05389738082885742
			],
			"type":"VEC3"
		},
		{
			"bufferView":17,
			"componentType":5126,
			"count":20,
			"type":"VEC3"
		},
		{
			"bufferView":18,
			"componentType":5126,
			"count":20,
			"type":"VEC2"
		},
		{
			"bufferView":19,
			"componentType":5123,
			"count":30,
			"type":"SCALAR"
		}
	],
	"bufferViews":[
		{
			"buffer":0,
			"byteLength":288,
			"byteOffset":0,
			"target":34962
		},
		{
			"buffer":0,
			"byteLength":288,
			"byteOffset":288,
			"target":34962
		},
		{
			"buffer":0,
			"byteLength":192,
			"byteOffset":576,
			"target":34962
		},
		{
			"buffer":0,
			"byteLength":72,
			"byteOffset":768,
			"target":34963
		},
		{
			"buffer":0,
			"byteLength":13356,
			"byteOffset":840,
			"target":34962
		},
		{
			"buffer":0,
			"byteLength":13356,
			"byteOffset":14196,
			"target":34962
		},
		{
			"buffer":0,
			"byteLength":8904,
			"byteOffset":27552,
			"target":34962
		},
		{
			"buffer":0,
			"byteLength":4440,
			"byteOffset":36456,
			"target":34963
		},
		{
			"buffer":0,
			"byteLength":72,
			"byteOffset":40896,
			"target":34962
		},
		{
			"buffer":0,
			"byteLength":72,
			"byteOffset":40968,
			"target":34962
		},
		{
			"buffer":0,
			"byteLength":48,
			"byteOffset":41040,
			"target":34962
		},
		{
			"buffer":0,
			"byteLength":24,
			"byteOffset":41088,
			"target":34963
		},
		{
			"buffer":0,
			"byteLength":336,
			"byteOffset":41112,
			"target":34962
		},
		{
			"buffer":0,
			"byteLength":336,
			"byteOffset":41448,
			"target":34962
		},
		{
			"buffer":0,
			"byteLength":224,
			"byteOffset":41784,
			"target":34962
		},
		{
			"buffer":0,
			"byteLength":108,
			"byteOffset":42008,
			"target":34963
		},
		{
			"buffer":0,
			"byteLength":240,
			"byteOffset":42116,
			"target":34962
		},
		{
			"buffer":0,
			"byteLength":240,
			"byteOffset":42356,
			"target":34962
		},
		{
			"buffer":0,
			"byteLength":160,
			"byteOffset":42596,
			"target":34962
		},
		{
			"buffer":0,
			"byteLength":60,
			"byteOffset":42756,
			"target":34963
		}
	],
	"buffers":[
		{
			"byteLength":42816,
			"uri":"ShowerRoom.bin"
		}
	]
}
