{
	"asset":{
		"generator":"Khronos glTF Blender I/O v4.1.63",
		"version":"2.0"
	},
	"scene":0,
	"scenes":[
		{
			"name":"Scene",
			"nodes":[
				1
			]
		}
	],
	"nodes":[
		{
			"mesh":0,
			"name":"Bed",
			"scale":[
				1.0101008415222168,
				0.6666666269302368,
				0.4999999701976776
			],
			"translation":[
				0,
				-0.9999999403953552,
				0
			]
		},
		{
			"children":[
				0
			],
			"mesh":1,
			"name":"COL01",
			"scale":[
				0.9900000095367432,
				1.5,
				2
			],
			"translation":[
				0,
				1.5,
				0
			]
		}
	],
	"materials":[
		{
			"doubleSided":true,
			"name":"Wood",
			"pbrMetallicRoughness":{
				"baseColorFactor":[
					0.11443537473678589,
					0.08865559101104736,
					0.05612849444150925,
					1
				],
				"metallicFactor":0
			}
		},
		{
			"doubleSided":true,
			"name":"White",
			"pbrMetallicRoughness":{
				"baseColorFactor":[
					0.44797539710998535,
					0.443290650844574,
					0.4294084906578064,
					1
				],
				"metallicFactor":0
			}
		},
		{
			"doubleSided":true,
			"name":"Red",
			"pbrMetallicRoughness":{
				"baseColorFactor":[
					0.15743045508861542,
					0.05174337327480316,
					0.033754151314496994,
					1
				],
				"metallicFactor":0
			}
		},
		{
			"doubleSided":true,
			"name":"Grey",
			"pbrMetallicRoughness":{
				"baseColorFactor":[
					0.2597948908805847,
					0.25713229179382324,
					0.24924027919769287,
					1
				],
				"metallicFactor":0
			}
		}
	],
	"meshes":[
		{
			"name":"Cube.052",
			"primitives":[
				{
					"attributes":{
						"POSITION":0,
						"NORMAL":1
					},
					"indices":2,
					"material":0
				},
				{
					"attributes":{
						"POSITION":3,
						"NORMAL":4
					},
					"indices":5,
					"material":1
				},
				{
					"attributes":{
						"POSITION":6,
						"NORMAL":7
					},
					"indices":8,
					"material":2
				},
				{
					"attributes":{
						"POSITION":9,
						"NORMAL":10
					},
					"indices":11,
					"material":3
				}
			]
		},
		{
			"name":"\u7acb\u65b9\u4f53",
			"primitives":[
				{
					"attributes":{
						"POSITION":12,
						"NORMAL":13,
						"TEXCOORD_0":14
					},
					"indices":15
				}
			]
		}
	],
	"accessors":[
		{
			"bufferView":0,
			"componentType":5126,
			"count":426,
			"max":[
				1.1957587003707886,
				2.997037410736084,
				1.9986974000930786
			],
			"min":[
				-0.9436655640602112,
				-0.02830718643963337,
				-1.998697280883789
			],
			"type":"VEC3"
		},
		{
			"bufferView":1,
			"componentType":5126,
			"count":426,
			"type":"VEC3"
		},
		{
			"bufferView":2,
			"componentType":5123,
			"count":846,
			"type":"SCALAR"
		},
		{
			"bufferView":3,
			"componentType":5126,
			"count":68,
			"max":[
				0.9210070967674255,
				2.9753177165985107,
				-1.149226188659668
			],
			"min":[
				-0.9420257210731506,
				0.4553912580013275,
				-1.9525048732757568
			],
			"type":"VEC3"
		},
		{
			"bufferView":4,
			"componentType":5126,
			"count":68,
			"type":"VEC3"
		},
		{
			"bufferView":5,
			"componentType":5123,
			"count":324,
			"type":"SCALAR"
		},
		{
			"bufferView":6,
			"componentType":5126,
			"count":40,
			"max":[
				0.944566547870636,
				2.7328553199768066,
				1.8584139347076416
			],
			"min":[
				-0.9661359190940857,
				0.43447819352149963,
				-0.8170169591903687
			],
			"type":"VEC3"
		},
		{
			"bufferView":7,
			"componentType":5126,
			"count":40,
			"type":"VEC3"
		},
		{
			"bufferView":8,
			"componentType":5123,
			"count":180,
			"type":"SCALAR"
		},
		{
			"bufferView":9,
			"componentType":5126,
			"count":52,
			"max":[
				0.9513402581214905,
				2.7601282596588135,
				-0.8052455186843872
			],
			"min":[
				-0.973067581653595,
				0.4284656047821045,
				-1.1690300703048706
			],
			"type":"VEC3"
		},
		{
			"bufferView":10,
			"componentType":5126,
			"count":52,
			"type":"VEC3"
		},
		{
			"bufferView":11,
			"componentType":5123,
			"count":216,
			"type":"SCALAR"
		},
		{
			"bufferView":12,
			"componentType":5126,
			"count":24,
			"max":[
				1,
				1,
				1
			],
			"min":[
				-1,
				-1,
				-1
			],
			"type":"VEC3"
		},
		{
			"bufferView":13,
			"componentType":5126,
			"count":24,
			"type":"VEC3"
		},
		{
			"bufferView":14,
			"componentType":5126,
			"count":24,
			"type":"VEC2"
		},
		{
			"bufferView":15,
			"componentType":5123,
			"count":36,
			"type":"SCALAR"
		}
	],
	"bufferViews":[
		{
			"buffer":0,
			"byteLength":5112,
			"byteOffset":0,
			"target":34962
		},
		{
			"buffer":0,
			"byteLength":5112,
			"byteOffset":5112,
			"target":34962
		},
		{
			"buffer":0,
			"byteLength":1692,
			"byteOffset":10224,
			"target":34963
		},
		{
			"buffer":0,
			"byteLength":816,
			"byteOffset":11916,
			"target":34962
		},
		{
			"buffer":0,
			"byteLength":816,
			"byteOffset":12732,
			"target":34962
		},
		{
			"buffer":0,
			"byteLength":648,
			"byteOffset":13548,
			"target":34963
		},
		{
			"buffer":0,
			"byteLength":480,
			"byteOffset":14196,
			"target":34962
		},
		{
			"buffer":0,
			"byteLength":480,
			"byteOffset":14676,
			"target":34962
		},
		{
			"buffer":0,
			"byteLength":360,
			"byteOffset":15156,
			"target":34963
		},
		{
			"buffer":0,
			"byteLength":624,
			"byteOffset":15516,
			"target":34962
		},
		{
			"buffer":0,
			"byteLength":624,
			"byteOffset":16140,
			"target":34962
		},
		{
			"buffer":0,
			"byteLength":432,
			"byteOffset":16764,
			"target":34963
		},
		{
			"buffer":0,
			"byteLength":288,
			"byteOffset":17196,
			"target":34962
		},
		{
			"buffer":0,
			"byteLength":288,
			"byteOffset":17484,
			"target":34962
		},
		{
			"buffer":0,
			"byteLength":192,
			"byteOffset":17772,
			"target":34962
		},
		{
			"buffer":0,
			"byteLength":72,
			"byteOffset":17964,
			"target":34963
		}
	],
	"buffers":[
		{
			"byteLength":18036,
			"uri":"Bed.bin"
		}
	]
}
