{
	"asset":{
		"generator":"Khronos glTF Blender I/O v4.1.63",
		"version":"2.0"
	},
	"scene":0,
	"scenes":[
		{
			"name":"Scene",
			"nodes":[
				1
			]
		}
	],
	"nodes":[
		{
			"mesh":0,
			"name":"COL01",
			"rotation":[
				0,
				1,
				0,
				0
			],
			"scale":[
				2,
				1.5,
				0.5
			],
			"translation":[
				0,
				1.5,
				0
			]
		},
		{
			"children":[
				0
			],
			"mesh":1,
			"name":"Shelf",
			"rotation":[
				0,
				1,
				0,
				0
			]
		}
	],
	"materials":[
		{
			"doubleSided":true,
			"name":"Accent.001",
			"pbrMetallicRoughness":{
				"baseColorFactor":[
					0.559592604637146,
					0.29767245054244995,
					0.06678982824087143,
					1
				],
				"metallicFactor":0,
				"roughnessFactor":0.5
			}
		},
		{
			"doubleSided":true,
			"name":"Main.001",
			"pbrMetallicRoughness":{
				"baseColorFactor":[
					0.40196332335472107,
					0.40196332335472107,
					0.40196332335472107,
					1
				],
				"metallicFactor":0,
				"roughnessFactor":0.5
			}
		},
		{
			"doubleSided":true,
			"name":"DarkGrey.001",
			"pbrMetallicRoughness":{
				"baseColorFactor":[
					0.23954731225967407,
					0.23954731225967407,
					0.23954731225967407,
					1
				],
				"metallicFactor":0,
				"roughnessFactor":0.5
			}
		},
		{
			"doubleSided":true,
			"name":"Accent.002",
			"pbrMetallicRoughness":{
				"baseColorFactor":[
					0.559592604637146,
					0.29767245054244995,
					0.06678982824087143,
					1
				],
				"metallicFactor":0,
				"roughnessFactor":0.5
			}
		},
		{
			"doubleSided":true,
			"name":"Main.002",
			"pbrMetallicRoughness":{
				"baseColorFactor":[
					0.40196332335472107,
					0.40196332335472107,
					0.40196332335472107,
					1
				],
				"metallicFactor":0,
				"roughnessFactor":0.5
			}
		},
		{
			"doubleSided":true,
			"name":"DarkGrey.002",
			"pbrMetallicRoughness":{
				"baseColorFactor":[
					0.23954731225967407,
					0.23954731225967407,
					0.23954731225967407,
					1
				],
				"metallicFactor":0,
				"roughnessFactor":0.5
			}
		}
	],
	"meshes":[
		{
			"name":"\u7acb\u65b9\u4f53",
			"primitives":[
				{
					"attributes":{
						"POSITION":0,
						"NORMAL":1,
						"TEXCOORD_0":2
					},
					"indices":3
				}
			]
		},
		{
			"name":"Cube.005",
			"primitives":[
				{
					"attributes":{
						"POSITION":4,
						"NORMAL":5
					},
					"indices":6,
					"material":0
				},
				{
					"attributes":{
						"POSITION":7,
						"NORMAL":8
					},
					"indices":9,
					"material":1
				},
				{
					"attributes":{
						"POSITION":10,
						"NORMAL":11
					},
					"indices":12,
					"material":2
				},
				{
					"attributes":{
						"POSITION":13,
						"NORMAL":14
					},
					"indices":15,
					"material":3
				},
				{
					"attributes":{
						"POSITION":16,
						"NORMAL":17
					},
					"indices":9,
					"material":4
				},
				{
					"attributes":{
						"POSITION":18,
						"NORMAL":19
					},
					"indices":12,
					"material":5
				}
			]
		}
	],
	"accessors":[
		{
			"bufferView":0,
			"componentType":5126,
			"count":24,
			"max":[
				1,
				1,
				1
			],
			"min":[
				-1,
				-1,
				-1
			],
			"type":"VEC3"
		},
		{
			"bufferView":1,
			"componentType":5126,
			"count":24,
			"type":"VEC3"
		},
		{
			"bufferView":2,
			"componentType":5126,
			"count":24,
			"type":"VEC2"
		},
		{
			"bufferView":3,
			"componentType":5123,
			"count":36,
			"type":"SCALAR"
		},
		{
			"bufferView":4,
			"componentType":5126,
			"count":230,
			"max":[
				-1.8816746473312378,
				3.1102070808410645,
				0.4053950011730194
			],
			"min":[
				-2.004471778869629,
				0.0035080909729003906,
				-0.4053950011730194
			],
			"type":"VEC3"
		},
		{
			"bufferView":5,
			"componentType":5126,
			"count":230,
			"type":"VEC3"
		},
		{
			"bufferView":6,
			"componentType":5123,
			"count":384,
			"type":"SCALAR"
		},
		{
			"bufferView":7,
			"componentType":5126,
			"count":220,
			"max":[
				0.021500110626220703,
				2.8673152923583984,
				0.38427215814590454
			],
			"min":[
				-2.028458595275879,
				0.3885594308376312,
				-0.38427215814590454
			],
			"type":"VEC3"
		},
		{
			"bufferView":8,
			"componentType":5126,
			"count":220,
			"type":"VEC3"
		},
		{
			"bufferView":9,
			"componentType":5123,
			"count":390,
			"type":"SCALAR"
		},
		{
			"bufferView":10,
			"componentType":5126,
			"count":20,
			"max":[
				-0.02311861515045166,
				2.850524425506592,
				0.34593620896339417
			],
			"min":[
				-1.9838398694992065,
				0.41267213225364685,
				-0.34593620896339417
			],
			"type":"VEC3"
		},
		{
			"bufferView":11,
			"componentType":5126,
			"count":20,
			"type":"VEC3"
		},
		{
			"bufferView":12,
			"componentType":5123,
			"count":30,
			"type":"SCALAR"
		},
		{
			"bufferView":13,
			"componentType":5126,
			"count":230,
			"max":[
				2.004471778869629,
				3.1102070808410645,
				0.4053950011730194
			],
			"min":[
				1.8816747665405273,
				0.0035080909729003906,
				-0.4053950011730194
			],
			"type":"VEC3"
		},
		{
			"bufferView":14,
			"componentType":5126,
			"count":230,
			"type":"VEC3"
		},
		{
			"bufferView":15,
			"componentType":5123,
			"count":384,
			"type":"SCALAR"
		},
		{
			"bufferView":16,
			"componentType":5126,
			"count":220,
			"max":[
				2.028458595275879,
				2.8673152923583984,
				0.38427215814590454
			],
			"min":[
				-0.021500110626220703,
				0.3885594308376312,
				-0.38427215814590454
			],
			"type":"VEC3"
		},
		{
			"bufferView":17,
			"componentType":5126,
			"count":220,
			"type":"VEC3"
		},
		{
			"bufferView":18,
			"componentType":5126,
			"count":20,
			"max":[
				1.983839988708496,
				2.850524425506592,
				0.34593620896339417
			],
			"min":[
				0.02311861515045166,
				0.41267213225364685,
				-0.34593620896339417
			],
			"type":"VEC3"
		},
		{
			"bufferView":19,
			"componentType":5126,
			"count":20,
			"type":"VEC3"
		}
	],
	"bufferViews":[
		{
			"buffer":0,
			"byteLength":288,
			"byteOffset":0,
			"target":34962
		},
		{
			"buffer":0,
			"byteLength":288,
			"byteOffset":288,
			"target":34962
		},
		{
			"buffer":0,
			"byteLength":192,
			"byteOffset":576,
			"target":34962
		},
		{
			"buffer":0,
			"byteLength":72,
			"byteOffset":768,
			"target":34963
		},
		{
			"buffer":0,
			"byteLength":2760,
			"byteOffset":840,
			"target":34962
		},
		{
			"buffer":0,
			"byteLength":2760,
			"byteOffset":3600,
			"target":34962
		},
		{
			"buffer":0,
			"byteLength":768,
			"byteOffset":6360,
			"target":34963
		},
		{
			"buffer":0,
			"byteLength":2640,
			"byteOffset":7128,
			"target":34962
		},
		{
			"buffer":0,
			"byteLength":2640,
			"byteOffset":9768,
			"target":34962
		},
		{
			"buffer":0,
			"byteLength":780,
			"byteOffset":12408,
			"target":34963
		},
		{
			"buffer":0,
			"byteLength":240,
			"byteOffset":13188,
			"target":34962
		},
		{
			"buffer":0,
			"byteLength":240,
			"byteOffset":13428,
			"target":34962
		},
		{
			"buffer":0,
			"byteLength":60,
			"byteOffset":13668,
			"target":34963
		},
		{
			"buffer":0,
			"byteLength":2760,
			"byteOffset":13728,
			"target":34962
		},
		{
			"buffer":0,
			"byteLength":2760,
			"byteOffset":16488,
			"target":34962
		},
		{
			"buffer":0,
			"byteLength":768,
			"byteOffset":19248,
			"target":34963
		},
		{
			"buffer":0,
			"byteLength":2640,
			"byteOffset":20016,
			"target":34962
		},
		{
			"buffer":0,
			"byteLength":2640,
			"byteOffset":22656,
			"target":34962
		},
		{
			"buffer":0,
			"byteLength":240,
			"byteOffset":25296,
			"target":34962
		},
		{
			"buffer":0,
			"byteLength":240,
			"byteOffset":25536,
			"target":34962
		}
	],
	"buffers":[
		{
			"byteLength":25776,
			"uri":"Shelf.bin"
		}
	]
}
