{
	"asset":{
		"generator":"Khronos glTF Blender I/O v4.1.63",
		"version":"2.0"
	},
	"scene":0,
	"scenes":[
		{
			"name":"Scene",
			"nodes":[
				0
			]
		}
	],
	"nodes":[
		{
			"mesh":0,
			"name":"Pistol_1"
		}
	],
	"materials":[
		{
			"doubleSided":true,
			"name":"DarkWood",
			"pbrMetallicRoughness":{
				"baseColorFactor":[
					0.10246890038251877,
					0.07204850763082504,
					0.055191364139318466,
					1
				],
				"metallicFactor":0,
				"roughnessFactor":0.5
			}
		},
		{
			"doubleSided":true,
			"name":"DarkMetal",
			"pbrMetallicRoughness":{
				"baseColorFactor":[
					0.04699999839067459,
					0.04695870354771614,
					0.045788172632455826,
					1
				],
				"metallicFactor":0,
				"roughnessFactor":0.5
			}
		},
		{
			"doubleSided":true,
			"name":"Metal",
			"pbrMetallicRoughness":{
				"baseColorFactor":[
					0.0666259378194809,
					0.06847818195819855,
					0.06700000166893005,
					1
				],
				"metallicFactor":0,
				"roughnessFactor":0.5
			}
		},
		{
			"doubleSided":true,
			"name":"Black",
			"pbrMetallicRoughness":{
				"baseColorFactor":[
					0.026966236531734467,
					0.02748231776058674,
					0.02909727953374386,
					1
				],
				"metallicFactor":0,
				"roughnessFactor":0.5
			}
		},
		{
			"doubleSided":true,
			"name":"Black2",
			"pbrMetallicRoughness":{
				"baseColorFactor":[
					0.013695953413844109,
					0.013931839726865292,
					0.014667932875454426,
					1
				],
				"metallicFactor":0,
				"roughnessFactor":0.5
			}
		}
	],
	"meshes":[
		{
			"name":"Cube.204",
			"primitives":[
				{
					"attributes":{
						"POSITION":0,
						"NORMAL":1
					},
					"indices":2,
					"material":0
				},
				{
					"attributes":{
						"POSITION":3,
						"NORMAL":4
					},
					"indices":5,
					"material":1
				},
				{
					"attributes":{
						"POSITION":6,
						"NORMAL":7
					},
					"indices":8,
					"material":2
				},
				{
					"attributes":{
						"POSITION":9,
						"NORMAL":10
					},
					"indices":11,
					"material":3
				},
				{
					"attributes":{
						"POSITION":12,
						"NORMAL":13
					},
					"indices":14,
					"material":4
				}
			]
		}
	],
	"accessors":[
		{
			"bufferView":0,
			"componentType":5126,
			"count":448,
			"max":[
				0.18867217004299164,
				0.36738359928131104,
				0.1616048365831375
			],
			"min":[
				-0.23292870819568634,
				-0.3553687632083893,
				-0.16160494089126587
			],
			"type":"VEC3"
		},
		{
			"bufferView":1,
			"componentType":5126,
			"count":448,
			"type":"VEC3"
		},
		{
			"bufferView":2,
			"componentType":5123,
			"count":672,
			"type":"SCALAR"
		},
		{
			"bufferView":3,
			"componentType":5126,
			"count":224,
			"max":[
				1.37189519405365,
				0.42934608459472656,
				0.13898901641368866
			],
			"min":[
				-0.336443692445755,
				-0.38435500860214233,
				-0.13898910582065582
			],
			"type":"VEC3"
		},
		{
			"bufferView":4,
			"componentType":5126,
			"count":224,
			"type":"VEC3"
		},
		{
			"bufferView":5,
			"componentType":5123,
			"count":396,
			"type":"SCALAR"
		},
		{
			"bufferView":6,
			"componentType":5126,
			"count":180,
			"max":[
				1.3724327087402344,
				0.7536340355873108,
				0.06749434769153595
			],
			"min":[
				-0.3395498991012573,
				0.0785968005657196,
				-0.06749437004327774
			],
			"type":"VEC3"
		},
		{
			"bufferView":7,
			"componentType":5126,
			"count":180,
			"type":"VEC3"
		},
		{
			"bufferView":8,
			"componentType":5123,
			"count":276,
			"type":"SCALAR"
		},
		{
			"bufferView":9,
			"componentType":5126,
			"count":826,
			"max":[
				1.479757308959961,
				0.7391843199729919,
				0.1504664421081543
			],
			"min":[
				-0.3396436870098114,
				-0.4079217314720154,
				-0.15046653151512146
			],
			"type":"VEC3"
		},
		{
			"bufferView":10,
			"componentType":5126,
			"count":826,
			"type":"VEC3"
		},
		{
			"bufferView":11,
			"componentType":5123,
			"count":1368,
			"type":"SCALAR"
		},
		{
			"bufferView":12,
			"componentType":5126,
			"count":270,
			"max":[
				1.45725679397583,
				0.6869352459907532,
				0.15433765947818756
			],
			"min":[
				-0.10602696239948273,
				0.4226142168045044,
				-0.15433774888515472
			],
			"type":"VEC3"
		},
		{
			"bufferView":13,
			"componentType":5126,
			"count":270,
			"type":"VEC3"
		},
		{
			"bufferView":14,
			"componentType":5123,
			"count":408,
			"type":"SCALAR"
		}
	],
	"bufferViews":[
		{
			"buffer":0,
			"byteLength":5376,
			"byteOffset":0,
			"target":34962
		},
		{
			"buffer":0,
			"byteLength":5376,
			"byteOffset":5376,
			"target":34962
		},
		{
			"buffer":0,
			"byteLength":1344,
			"byteOffset":10752,
			"target":34963
		},
		{
			"buffer":0,
			"byteLength":2688,
			"byteOffset":12096,
			"target":34962
		},
		{
			"buffer":0,
			"byteLength":2688,
			"byteOffset":14784,
			"target":34962
		},
		{
			"buffer":0,
			"byteLength":792,
			"byteOffset":17472,
			"target":34963
		},
		{
			"buffer":0,
			"byteLength":2160,
			"byteOffset":18264,
			"target":34962
		},
		{
			"buffer":0,
			"byteLength":2160,
			"byteOffset":20424,
			"target":34962
		},
		{
			"buffer":0,
			"byteLength":552,
			"byteOffset":22584,
			"target":34963
		},
		{
			"buffer":0,
			"byteLength":9912,
			"byteOffset":23136,
			"target":34962
		},
		{
			"buffer":0,
			"byteLength":9912,
			"byteOffset":33048,
			"target":34962
		},
		{
			"buffer":0,
			"byteLength":2736,
			"byteOffset":42960,
			"target":34963
		},
		{
			"buffer":0,
			"byteLength":3240,
			"byteOffset":45696,
			"target":34962
		},
		{
			"buffer":0,
			"byteLength":3240,
			"byteOffset":48936,
			"target":34962
		},
		{
			"buffer":0,
			"byteLength":816,
			"byteOffset":52176,
			"target":34963
		}
	],
	"buffers":[
		{
			"byteLength":52992,
			"uri":"Pistol_1.bin"
		}
	]
}
