{
	"asset":{
		"generator":"Khronos glTF Blender I/O v4.1.63",
		"version":"2.0"
	},
	"extensionsUsed":[
		"KHR_materials_specular",
		"KHR_materials_ior"
	],
	"scene":0,
	"scenes":[
		{
			"name":"Scene",
			"nodes":[
				1
			]
		}
	],
	"nodes":[
		{
			"mesh":0,
			"name":"COL01",
			"rotation":[
				-0.7071068286895752,
				0,
				0,
				0.7071068286895752
			],
			"scale":[
				1,
				1.5,
				1.75
			],
			"translation":[
				0,
				0,
				-1.5
			]
		},
		{
			"children":[
				0
			],
			"mesh":1,
			"name":"PC",
			"rotation":[
				0.7071068286895752,
				0,
				0,
				0.7071068286895752
			]
		}
	],
	"materials":[
		{
			"doubleSided":true,
			"extensions":{
				"KHR_materials_specular":{
					"specularFactor":0
				},
				"KHR_materials_ior":{
					"ior":1.4500000476837158
				}
			},
			"name":"Material.003",
			"pbrMetallicRoughness":{
				"baseColorFactor":[
					0.23176899552345276,
					0.23176899552345276,
					0.23176899552345276,
					1
				],
				"metallicFactor":0,
				"roughnessFactor":0.5
			}
		},
		{
			"doubleSided":true,
			"extensions":{
				"KHR_materials_specular":{
					"specularFactor":0
				},
				"KHR_materials_ior":{
					"ior":1.4500000476837158
				}
			},
			"name":"Material.001",
			"pbrMetallicRoughness":{
				"baseColorFactor":[
					0.09592200070619583,
					0.09592200070619583,
					0.09592200070619583,
					1
				],
				"metallicFactor":0,
				"roughnessFactor":0.5
			}
		},
		{
			"doubleSided":true,
			"name":"Material.006",
			"pbrMetallicRoughness":{
				"baseColorFactor":[
					0.800000011920929,
					0.0013279999839141965,
					0.006862999871373177,
					1
				],
				"metallicFactor":0,
				"roughnessFactor":0.5
			}
		},
		{
			"doubleSided":true,
			"name":"Material.007",
			"pbrMetallicRoughness":{
				"baseColorFactor":[
					0.512158989906311,
					0.019505999982357025,
					0.02178799919784069,
					1
				],
				"metallicFactor":0,
				"roughnessFactor":0.5
			}
		},
		{
			"doubleSided":true,
			"extensions":{
				"KHR_materials_specular":{
					"specularFactor":0
				},
				"KHR_materials_ior":{
					"ior":1.4500000476837158
				}
			},
			"name":"Material.004",
			"pbrMetallicRoughness":{
				"baseColorFactor":[
					0.04321200028061867,
					0.04321200028061867,
					0.04321200028061867,
					1
				],
				"metallicFactor":0,
				"roughnessFactor":0.5
			}
		},
		{
			"doubleSided":true,
			"extensions":{
				"KHR_materials_specular":{
					"specularFactor":0
				},
				"KHR_materials_ior":{
					"ior":1.4500000476837158
				}
			},
			"name":"Material.002",
			"pbrMetallicRoughness":{
				"baseColorFactor":[
					0.01718199998140335,
					0.01718199998140335,
					0.01718199998140335,
					1
				],
				"metallicFactor":0,
				"roughnessFactor":0.5
			}
		},
		{
			"doubleSided":true,
			"name":"Material.005",
			"pbrMetallicRoughness":{
				"baseColorFactor":[
					0.4115679860115051,
					0.4115679860115051,
					0.4115679860115051,
					1
				],
				"metallicFactor":0,
				"roughnessFactor":0.5
			}
		}
	],
	"meshes":[
		{
			"name":"\u7acb\u65b9\u4f53",
			"primitives":[
				{
					"attributes":{
						"POSITION":0,
						"NORMAL":1,
						"TEXCOORD_0":2
					},
					"indices":3
				}
			]
		},
		{
			"name":"Cube.024_Cube.027",
			"primitives":[
				{
					"attributes":{
						"POSITION":4,
						"NORMAL":5,
						"TEXCOORD_0":6
					},
					"indices":7,
					"material":0
				},
				{
					"attributes":{
						"POSITION":8,
						"NORMAL":9,
						"TEXCOORD_0":10
					},
					"indices":11,
					"material":1
				},
				{
					"attributes":{
						"POSITION":12,
						"NORMAL":13,
						"TEXCOORD_0":14
					},
					"indices":15,
					"material":2
				},
				{
					"attributes":{
						"POSITION":16,
						"NORMAL":17,
						"TEXCOORD_0":18
					},
					"indices":19,
					"material":3
				},
				{
					"attributes":{
						"POSITION":20,
						"NORMAL":21,
						"TEXCOORD_0":22
					},
					"indices":23,
					"material":4
				},
				{
					"attributes":{
						"POSITION":24,
						"NORMAL":25,
						"TEXCOORD_0":26
					},
					"indices":27,
					"material":5
				},
				{
					"attributes":{
						"POSITION":28,
						"NORMAL":29,
						"TEXCOORD_0":30
					},
					"indices":31,
					"material":6
				}
			]
		}
	],
	"accessors":[
		{
			"bufferView":0,
			"componentType":5126,
			"count":24,
			"max":[
				1,
				1,
				1
			],
			"min":[
				-1,
				-1,
				-1
			],
			"type":"VEC3"
		},
		{
			"bufferView":1,
			"componentType":5126,
			"count":24,
			"type":"VEC3"
		},
		{
			"bufferView":2,
			"componentType":5126,
			"count":24,
			"type":"VEC2"
		},
		{
			"bufferView":3,
			"componentType":5123,
			"count":36,
			"type":"SCALAR"
		},
		{
			"bufferView":4,
			"componentType":5126,
			"count":96,
			"max":[
				0.8200370073318481,
				1.7679269313812256,
				1.6828292359605257e-07
			],
			"min":[
				-0.8136990070343018,
				-1.7596290111541748,
				-1.3805959224700928
			],
			"type":"VEC3"
		},
		{
			"bufferView":5,
			"componentType":5126,
			"count":96,
			"type":"VEC3"
		},
		{
			"bufferView":6,
			"componentType":5126,
			"count":96,
			"type":"VEC2"
		},
		{
			"bufferView":7,
			"componentType":5123,
			"count":144,
			"type":"SCALAR"
		},
		{
			"bufferView":8,
			"componentType":5126,
			"count":148,
			"max":[
				1,
				1.9307420253753662,
				-1.3789719343185425
			],
			"min":[
				-1,
				-1.833812952041626,
				-2.858022928237915
			],
			"type":"VEC3"
		},
		{
			"bufferView":9,
			"componentType":5126,
			"count":148,
			"type":"VEC3"
		},
		{
			"bufferView":10,
			"componentType":5126,
			"count":148,
			"type":"VEC2"
		},
		{
			"bufferView":11,
			"componentType":5123,
			"count":264,
			"type":"SCALAR"
		},
		{
			"bufferView":12,
			"componentType":5126,
			"count":120,
			"max":[
				0.722790002822876,
				1.279297947883606,
				-1.4410258531570435
			],
			"min":[
				-0.009096999652683735,
				-1.6336798667907715,
				-2.1285247802734375
			],
			"type":"VEC3"
		},
		{
			"bufferView":13,
			"componentType":5126,
			"count":120,
			"type":"VEC3"
		},
		{
			"bufferView":14,
			"componentType":5126,
			"count":120,
			"type":"VEC2"
		},
		{
			"bufferView":15,
			"componentType":5123,
			"count":180,
			"type":"SCALAR"
		},
		{
			"bufferView":16,
			"componentType":5126,
			"count":148,
			"max":[
				0.29686999320983887,
				0.1282019168138504,
				-1.4284329414367676
			],
			"min":[
				-0.009096999652683735,
				-0.06208007410168648,
				-1.9513449668884277
			],
			"type":"VEC3"
		},
		{
			"bufferView":17,
			"componentType":5126,
			"count":148,
			"type":"VEC3"
		},
		{
			"bufferView":18,
			"componentType":5126,
			"count":148,
			"type":"VEC2"
		},
		{
			"bufferView":19,
			"componentType":5123,
			"count":240,
			"type":"SCALAR"
		},
		{
			"bufferView":20,
			"componentType":5126,
			"count":1111,
			"max":[
				1.1859657764434814,
				1.5010219812393188,
				-0.053906213492155075
			],
			"min":[
				-0.16820000112056732,
				-0.758538007736206,
				-2.929992914199829
			],
			"type":"VEC3"
		},
		{
			"bufferView":21,
			"componentType":5126,
			"count":1111,
			"type":"VEC3"
		},
		{
			"bufferView":22,
			"componentType":5126,
			"count":1111,
			"type":"VEC2"
		},
		{
			"bufferView":23,
			"componentType":5123,
			"count":1896,
			"type":"SCALAR"
		},
		{
			"bufferView":24,
			"componentType":5126,
			"count":586,
			"max":[
				1.1274535655975342,
				1.4241009950637817,
				-0.024842213839292526
			],
			"min":[
				-0.6900870203971863,
				-1.6778538227081299,
				-2.917611837387085
			],
			"type":"VEC3"
		},
		{
			"bufferView":25,
			"componentType":5126,
			"count":586,
			"type":"VEC3"
		},
		{
			"bufferView":26,
			"componentType":5126,
			"count":586,
			"type":"VEC2"
		},
		{
			"bufferView":27,
			"componentType":5123,
			"count":882,
			"type":"SCALAR"
		},
		{
			"bufferView":28,
			"componentType":5126,
			"count":1588,
			"max":[
				0.8295270204544067,
				1.279297947883606,
				-1.471863865852356
			],
			"min":[
				0.3941119909286499,
				-1.2348880767822266,
				-2.1257410049438477
			],
			"type":"VEC3"
		},
		{
			"bufferView":29,
			"componentType":5126,
			"count":1588,
			"type":"VEC3"
		},
		{
			"bufferView":30,
			"componentType":5126,
			"count":1588,
			"type":"VEC2"
		},
		{
			"bufferView":31,
			"componentType":5123,
			"count":2418,
			"type":"SCALAR"
		}
	],
	"bufferViews":[
		{
			"buffer":0,
			"byteLength":288,
			"byteOffset":0,
			"target":34962
		},
		{
			"buffer":0,
			"byteLength":288,
			"byteOffset":288,
			"target":34962
		},
		{
			"buffer":0,
			"byteLength":192,
			"byteOffset":576,
			"target":34962
		},
		{
			"buffer":0,
			"byteLength":72,
			"byteOffset":768,
			"target":34963
		},
		{
			"buffer":0,
			"byteLength":1152,
			"byteOffset":840,
			"target":34962
		},
		{
			"buffer":0,
			"byteLength":1152,
			"byteOffset":1992,
			"target":34962
		},
		{
			"buffer":0,
			"byteLength":768,
			"byteOffset":3144,
			"target":34962
		},
		{
			"buffer":0,
			"byteLength":288,
			"byteOffset":3912,
			"target":34963
		},
		{
			"buffer":0,
			"byteLength":1776,
			"byteOffset":4200,
			"target":34962
		},
		{
			"buffer":0,
			"byteLength":1776,
			"byteOffset":5976,
			"target":34962
		},
		{
			"buffer":0,
			"byteLength":1184,
			"byteOffset":7752,
			"target":34962
		},
		{
			"buffer":0,
			"byteLength":528,
			"byteOffset":8936,
			"target":34963
		},
		{
			"buffer":0,
			"byteLength":1440,
			"byteOffset":9464,
			"target":34962
		},
		{
			"buffer":0,
			"byteLength":1440,
			"byteOffset":10904,
			"target":34962
		},
		{
			"buffer":0,
			"byteLength":960,
			"byteOffset":12344,
			"target":34962
		},
		{
			"buffer":0,
			"byteLength":360,
			"byteOffset":13304,
			"target":34963
		},
		{
			"buffer":0,
			"byteLength":1776,
			"byteOffset":13664,
			"target":34962
		},
		{
			"buffer":0,
			"byteLength":1776,
			"byteOffset":15440,
			"target":34962
		},
		{
			"buffer":0,
			"byteLength":1184,
			"byteOffset":17216,
			"target":34962
		},
		{
			"buffer":0,
			"byteLength":480,
			"byteOffset":18400,
			"target":34963
		},
		{
			"buffer":0,
			"byteLength":13332,
			"byteOffset":18880,
			"target":34962
		},
		{
			"buffer":0,
			"byteLength":13332,
			"byteOffset":32212,
			"target":34962
		},
		{
			"buffer":0,
			"byteLength":8888,
			"byteOffset":45544,
			"target":34962
		},
		{
			"buffer":0,
			"byteLength":3792,
			"byteOffset":54432,
			"target":34963
		},
		{
			"buffer":0,
			"byteLength":7032,
			"byteOffset":58224,
			"target":34962
		},
		{
			"buffer":0,
			"byteLength":7032,
			"byteOffset":65256,
			"target":34962
		},
		{
			"buffer":0,
			"byteLength":4688,
			"byteOffset":72288,
			"target":34962
		},
		{
			"buffer":0,
			"byteLength":1764,
			"byteOffset":76976,
			"target":34963
		},
		{
			"buffer":0,
			"byteLength":19056,
			"byteOffset":78740,
			"target":34962
		},
		{
			"buffer":0,
			"byteLength":19056,
			"byteOffset":97796,
			"target":34962
		},
		{
			"buffer":0,
			"byteLength":12704,
			"byteOffset":116852,
			"target":34962
		},
		{
			"buffer":0,
			"byteLength":4836,
			"byteOffset":129556,
			"target":34963
		}
	],
	"buffers":[
		{
			"byteLength":134392,
			"uri":"PCDesk.bin"
		}
	]
}
