{
	"asset":{
		"generator":"Khronos glTF Blender I/O v4.1.63",
		"version":"2.0"
	},
	"scene":0,
	"scenes":[
		{
			"name":"Scene",
			"nodes":[
				1
			]
		}
	],
	"nodes":[
		{
			"mesh":0,
			"name":"Table_RoundLarge",
			"scale":[
				0.5405404567718506,
				1.8181817531585693,
				1
			],
			"translation":[
				0,
				-1,
				0
			]
		},
		{
			"children":[
				0
			],
			"mesh":1,
			"name":"COL01",
			"scale":[
				1.850000023841858,
				0.550000011920929,
				1
			],
			"translation":[
				0,
				0.550000011920929,
				0
			]
		}
	],
	"materials":[
		{
			"doubleSided":true,
			"name":"Wood",
			"pbrMetallicRoughness":{
				"baseColorFactor":[
					0.11443537473678589,
					0.08865559101104736,
					0.05612849444150925,
					1
				],
				"metallicFactor":0
			}
		}
	],
	"meshes":[
		{
			"name":"Cylinder.013",
			"primitives":[
				{
					"attributes":{
						"POSITION":0,
						"NORMAL":1
					},
					"indices":2,
					"material":0
				}
			]
		},
		{
			"name":"\u7acb\u65b9\u4f53",
			"primitives":[
				{
					"attributes":{
						"POSITION":3,
						"NORMAL":4,
						"TEXCOORD_0":5
					},
					"indices":6
				}
			]
		}
	],
	"accessors":[
		{
			"bufferView":0,
			"componentType":5126,
			"count":262,
			"max":[
				1.8566832542419434,
				1.126293420791626,
				0.9704950451850891
			],
			"min":[
				-1.8566838502883911,
				0.0050976029597222805,
				-0.9704928994178772
			],
			"type":"VEC3"
		},
		{
			"bufferView":1,
			"componentType":5126,
			"count":262,
			"type":"VEC3"
		},
		{
			"bufferView":2,
			"componentType":5123,
			"count":1548,
			"type":"SCALAR"
		},
		{
			"bufferView":3,
			"componentType":5126,
			"count":24,
			"max":[
				1,
				1,
				1
			],
			"min":[
				-1,
				-1,
				-1
			],
			"type":"VEC3"
		},
		{
			"bufferView":4,
			"componentType":5126,
			"count":24,
			"type":"VEC3"
		},
		{
			"bufferView":5,
			"componentType":5126,
			"count":24,
			"type":"VEC2"
		},
		{
			"bufferView":6,
			"componentType":5123,
			"count":36,
			"type":"SCALAR"
		}
	],
	"bufferViews":[
		{
			"buffer":0,
			"byteLength":3144,
			"byteOffset":0,
			"target":34962
		},
		{
			"buffer":0,
			"byteLength":3144,
			"byteOffset":3144,
			"target":34962
		},
		{
			"buffer":0,
			"byteLength":3096,
			"byteOffset":6288,
			"target":34963
		},
		{
			"buffer":0,
			"byteLength":288,
			"byteOffset":9384,
			"target":34962
		},
		{
			"buffer":0,
			"byteLength":288,
			"byteOffset":9672,
			"target":34962
		},
		{
			"buffer":0,
			"byteLength":192,
			"byteOffset":9960,
			"target":34962
		},
		{
			"buffer":0,
			"byteLength":72,
			"byteOffset":10152,
			"target":34963
		}
	],
	"buffers":[
		{
			"byteLength":10224,
			"uri":"Table.bin"
		}
	]
}
