{
	"asset":{
		"generator":"Khronos glTF Blender I/O v4.1.63",
		"version":"2.0"
	},
	"scene":0,
	"scenes":[
		{
			"name":"Scene",
			"nodes":[
				0
			]
		}
	],
	"nodes":[
		{
			"mesh":0,
			"name":"AssaultRifle_2",
			"rotation":[
				0,
				-0.7071068286895752,
				0,
				0.7071068286895752
			]
		}
	],
	"materials":[
		{
			"doubleSided":true,
			"name":"Wood",
			"pbrMetallicRoughness":{
				"baseColorFactor":[
					0.13285954296588898,
					0.09002935886383057,
					0.06840453296899796,
					1
				],
				"metallicFactor":0,
				"roughnessFactor":0.5
			}
		},
		{
			"doubleSided":true,
			"name":"Black",
			"pbrMetallicRoughness":{
				"baseColorFactor":[
					0.026966236531734467,
					0.02748231776058674,
					0.02909727953374386,
					1
				],
				"metallicFactor":0,
				"roughnessFactor":0.5
			}
		},
		{
			"doubleSided":true,
			"name":"DarkMetal",
			"pbrMetallicRoughness":{
				"baseColorFactor":[
					0.04699999839067459,
					0.04695870354771614,
					0.045788172632455826,
					1
				],
				"metallicFactor":0,
				"roughnessFactor":0.5
			}
		},
		{
			"doubleSided":true,
			"name":"Metal",
			"pbrMetallicRoughness":{
				"baseColorFactor":[
					0.0666259378194809,
					0.06847818195819855,
					0.06700000166893005,
					1
				],
				"metallicFactor":0,
				"roughnessFactor":0.5
			}
		},
		{
			"doubleSided":true,
			"name":"DarkWood",
			"pbrMetallicRoughness":{
				"baseColorFactor":[
					0.10246890038251877,
					0.07204850763082504,
					0.055191364139318466,
					1
				],
				"metallicFactor":0,
				"roughnessFactor":0.5
			}
		}
	],
	"meshes":[
		{
			"name":"Cube.136",
			"primitives":[
				{
					"attributes":{
						"POSITION":0,
						"NORMAL":1
					},
					"indices":2,
					"material":0
				},
				{
					"attributes":{
						"POSITION":3,
						"NORMAL":4
					},
					"indices":5,
					"material":1
				},
				{
					"attributes":{
						"POSITION":6,
						"NORMAL":7
					},
					"indices":8,
					"material":2
				},
				{
					"attributes":{
						"POSITION":9,
						"NORMAL":10
					},
					"indices":11,
					"material":3
				},
				{
					"attributes":{
						"POSITION":12,
						"NORMAL":13
					},
					"indices":14,
					"material":4
				}
			]
		}
	],
	"accessors":[
		{
			"bufferView":0,
			"componentType":5126,
			"count":390,
			"max":[
				2.48712420463562,
				0.653942346572876,
				0.08368338644504547
			],
			"min":[
				-1.558630347251892,
				-0.2725173532962799,
				-0.08368311822414398
			],
			"type":"VEC3"
		},
		{
			"bufferView":1,
			"componentType":5126,
			"count":390,
			"type":"VEC3"
		},
		{
			"bufferView":2,
			"componentType":5123,
			"count":654,
			"type":"SCALAR"
		},
		{
			"bufferView":3,
			"componentType":5126,
			"count":748,
			"max":[
				2.457498073577881,
				0.8082783222198486,
				0.07624378800392151
			],
			"min":[
				-1.6048098802566528,
				-0.7415415048599243,
				-0.07624375075101852
			],
			"type":"VEC3"
		},
		{
			"bufferView":4,
			"componentType":5126,
			"count":748,
			"type":"VEC3"
		},
		{
			"bufferView":5,
			"componentType":5123,
			"count":1206,
			"type":"SCALAR"
		},
		{
			"bufferView":6,
			"componentType":5126,
			"count":650,
			"max":[
				3.816847085952759,
				0.7774773836135864,
				0.07841348648071289
			],
			"min":[
				-0.17887505888938904,
				0.14525839686393738,
				-0.07841331511735916
			],
			"type":"VEC3"
		},
		{
			"bufferView":7,
			"componentType":5126,
			"count":650,
			"type":"VEC3"
		},
		{
			"bufferView":8,
			"componentType":5123,
			"count":1200,
			"type":"SCALAR"
		},
		{
			"bufferView":9,
			"componentType":5126,
			"count":418,
			"max":[
				3.734915018081665,
				0.8598202466964722,
				0.09801056981086731
			],
			"min":[
				-0.1862785816192627,
				0.5199692249298096,
				-0.09801042824983597
			],
			"type":"VEC3"
		},
		{
			"bufferView":10,
			"componentType":5126,
			"count":418,
			"type":"VEC3"
		},
		{
			"bufferView":11,
			"componentType":5123,
			"count":726,
			"type":"SCALAR"
		},
		{
			"bufferView":12,
			"componentType":5126,
			"count":72,
			"max":[
				2.487339735031128,
				0.8481839895248413,
				0.08368341624736786
			],
			"min":[
				1.7907134294509888,
				0.6662192940711975,
				-0.0836830884218216
			],
			"type":"VEC3"
		},
		{
			"bufferView":13,
			"componentType":5126,
			"count":72,
			"type":"VEC3"
		},
		{
			"bufferView":14,
			"componentType":5123,
			"count":132,
			"type":"SCALAR"
		}
	],
	"bufferViews":[
		{
			"buffer":0,
			"byteLength":4680,
			"byteOffset":0,
			"target":34962
		},
		{
			"buffer":0,
			"byteLength":4680,
			"byteOffset":4680,
			"target":34962
		},
		{
			"buffer":0,
			"byteLength":1308,
			"byteOffset":9360,
			"target":34963
		},
		{
			"buffer":0,
			"byteLength":8976,
			"byteOffset":10668,
			"target":34962
		},
		{
			"buffer":0,
			"byteLength":8976,
			"byteOffset":19644,
			"target":34962
		},
		{
			"buffer":0,
			"byteLength":2412,
			"byteOffset":28620,
			"target":34963
		},
		{
			"buffer":0,
			"byteLength":7800,
			"byteOffset":31032,
			"target":34962
		},
		{
			"buffer":0,
			"byteLength":7800,
			"byteOffset":38832,
			"target":34962
		},
		{
			"buffer":0,
			"byteLength":2400,
			"byteOffset":46632,
			"target":34963
		},
		{
			"buffer":0,
			"byteLength":5016,
			"byteOffset":49032,
			"target":34962
		},
		{
			"buffer":0,
			"byteLength":5016,
			"byteOffset":54048,
			"target":34962
		},
		{
			"buffer":0,
			"byteLength":1452,
			"byteOffset":59064,
			"target":34963
		},
		{
			"buffer":0,
			"byteLength":864,
			"byteOffset":60516,
			"target":34962
		},
		{
			"buffer":0,
			"byteLength":864,
			"byteOffset":61380,
			"target":34962
		},
		{
			"buffer":0,
			"byteLength":264,
			"byteOffset":62244,
			"target":34963
		}
	],
	"buffers":[
		{
			"byteLength":62508,
			"uri":"AssaultRifle_2.bin"
		}
	]
}
