{
	"asset":{
		"generator":"Khronos glTF Blender I/O v4.1.63",
		"version":"2.0"
	},
	"scene":0,
	"scenes":[
		{
			"name":"Scene",
			"nodes":[
				0
			]
		}
	],
	"nodes":[
		{
			"mesh":0,
			"name":"\u5186\u67f1",
			"scale":[
				150,
				100,
				150
			]
		}
	],
	"materials":[
		{
			"doubleSided":true,
			"name":"\u30de\u30c6\u30ea\u30a2\u30eb",
			"pbrMetallicRoughness":{
				"baseColorTexture":{
					"index":0
				},
				"metallicFactor":0
			}
		}
	],
	"meshes":[
		{
			"name":"\u5186\u67f1",
			"primitives":[
				{
					"attributes":{
						"POSITION":0,
						"NORMAL":1,
						"TEXCOORD_0":2
					},
					"indices":3,
					"material":0
				}
			]
		}
	],
	"textures":[
		{
			"sampler":0,
			"source":0
		}
	],
	"images":[
		{
			"mimeType":"image/png",
			"name":"pixelart_starfield",
			"uri":"pixelart_starfield.png"
		}
	],
	"accessors":[
		{
			"bufferView":0,
			"componentType":5126,
			"count":3595,
			"max":[
				0.9936952590942383,
				1.000000238418579,
				0.9936952590942383
			],
			"min":[
				-0.9936952590942383,
				-1.000000238418579,
				-0.9936952590942383
			],
			"type":"VEC3"
		},
		{
			"bufferView":1,
			"componentType":5126,
			"count":3595,
			"type":"VEC3"
		},
		{
			"bufferView":2,
			"componentType":5126,
			"count":3595,
			"type":"VEC2"
		},
		{
			"bufferView":3,
			"componentType":5123,
			"count":18432,
			"type":"SCALAR"
		}
	],
	"bufferViews":[
		{
			"buffer":0,
			"byteLength":43140,
			"byteOffset":0,
			"target":34962
		},
		{
			"buffer":0,
			"byteLength":43140,
			"byteOffset":43140,
			"target":34962
		},
		{
			"buffer":0,
			"byteLength":28760,
			"byteOffset":86280,
			"target":34962
		},
		{
			"buffer":0,
			"byteLength":36864,
			"byteOffset":115040,
			"target":34963
		}
	],
	"samplers":[
		{
			"magFilter":9729,
			"minFilter":9987
		}
	],
	"buffers":[
		{
			"byteLength":151904,
			"uri":"Sky.bin"
		}
	]
}
