{
	"asset":{
		"generator":"Khronos glTF Blender I/O v4.1.63",
		"version":"2.0"
	},
	"scene":0,
	"scenes":[
		{
			"name":"Scene",
			"nodes":[
				8
			]
		}
	],
	"nodes":[
		{
			"name":"Heli_end",
			"rotation":[
				1.4084351107612747e-07,
				-7.105427357601002e-15,
				3.357970978644549e-14,
				1
			],
			"scale":[
				1,
				0.9999999403953552,
				1
			],
			"translation":[
				4.073038564408882e-14,
				1.0724899768829346,
				-1.708356194285443e-07
			]
		},
		{
			"mesh":0,
			"name":"Heli",
			"rotation":[
				-2.1893434620778862e-08,
				0.09148064255714417,
				3.407761184348601e-09,
				0.995806872844696
			],
			"translation":[
				1.2871974774952832e-07,
				-1.0806710720062256,
				-0.016215529292821884
			]
		},
		{
			"children":[
				0,
				1
			],
			"name":"Heli",
			"rotation":[
				-2.2230383933674602e-07,
				1.1920928955078125e-07,
				-2.650068275174451e-14,
				1
			],
			"translation":[
				0,
				3.512779712677002,
				-4.202907085418701
			]
		},
		{
			"name":"Tail_end",
			"rotation":[
				-2.02049629875441e-15,
				-3.552713339987322e-14,
				1.1002742894561379e-07,
				1
			],
			"translation":[
				8.674521723150974e-08,
				1.0834503173828125,
				5.4714483610496245e-08
			]
		},
		{
			"mesh":1,
			"name":"Tail",
			"rotation":[
				-1.6296827709538775e-07,
				-2.0511514264853759e-07,
				0.7071067690849304,
				0.7071067690849304
			],
			"translation":[
				0.008665270172059536,
				-0.2154589593410492,
				-0.015472833067178726
			]
		},
		{
			"children":[
				3,
				4
			],
			"name":"Tail",
			"rotation":[
				6.409371167137579e-08,
				6.4093676144239e-08,
				-0.7071069478988647,
				0.7071065902709961
			],
			"translation":[
				0.42092809081077576,
				2.203693151473999,
				-11.347634315490723
			]
		},
		{
			"mesh":2,
			"name":"Base",
			"rotation":[
				-1.410649872468639e-07,
				0,
				0,
				1
			],
			"translation":[
				0,
				-0.12481725215911865,
				-4.717458248138428
			]
		},
		{
			"children":[
				2,
				5,
				6
			],
			"name":"Base",
			"rotation":[
				1.0033481601112726e-07,
				0,
				0,
				1
			],
			"translation":[
				0,
				0.12481689453125,
				2.033525170475059e-08
			]
		},
		{
			"children":[
				7
			],
			"name":"Helicopter",
			"translation":[
				0,
				0,
				4.717458248138428
			]
		}
	],
	"animations":[
		{
			"channels":[
				{
					"sampler":0,
					"target":{
						"node":7,
						"path":"translation"
					}
				},
				{
					"sampler":1,
					"target":{
						"node":7,
						"path":"rotation"
					}
				},
				{
					"sampler":2,
					"target":{
						"node":7,
						"path":"scale"
					}
				},
				{
					"sampler":3,
					"target":{
						"node":2,
						"path":"translation"
					}
				},
				{
					"sampler":4,
					"target":{
						"node":2,
						"path":"rotation"
					}
				},
				{
					"sampler":5,
					"target":{
						"node":2,
						"path":"scale"
					}
				},
				{
					"sampler":6,
					"target":{
						"node":0,
						"path":"translation"
					}
				},
				{
					"sampler":7,
					"target":{
						"node":0,
						"path":"rotation"
					}
				},
				{
					"sampler":8,
					"target":{
						"node":0,
						"path":"scale"
					}
				},
				{
					"sampler":9,
					"target":{
						"node":5,
						"path":"translation"
					}
				},
				{
					"sampler":10,
					"target":{
						"node":5,
						"path":"rotation"
					}
				},
				{
					"sampler":11,
					"target":{
						"node":5,
						"path":"scale"
					}
				},
				{
					"sampler":12,
					"target":{
						"node":3,
						"path":"translation"
					}
				},
				{
					"sampler":13,
					"target":{
						"node":3,
						"path":"rotation"
					}
				},
				{
					"sampler":14,
					"target":{
						"node":3,
						"path":"scale"
					}
				},
				{
					"sampler":15,
					"target":{
						"node":8,
						"path":"translation"
					}
				},
				{
					"sampler":16,
					"target":{
						"node":8,
						"path":"rotation"
					}
				},
				{
					"sampler":17,
					"target":{
						"node":8,
						"path":"scale"
					}
				}
			],
			"name":"Spin",
			"samplers":[
				{
					"input":16,
					"interpolation":"STEP",
					"output":17
				},
				{
					"input":16,
					"interpolation":"STEP",
					"output":18
				},
				{
					"input":16,
					"interpolation":"STEP",
					"output":19
				},
				{
					"input":16,
					"interpolation":"STEP",
					"output":20
				},
				{
					"input":21,
					"interpolation":"LINEAR",
					"output":22
				},
				{
					"input":16,
					"interpolation":"STEP",
					"output":23
				},
				{
					"input":16,
					"interpolation":"STEP",
					"output":24
				},
				{
					"input":16,
					"interpolation":"STEP",
					"output":25
				},
				{
					"input":16,
					"interpolation":"STEP",
					"output":26
				},
				{
					"input":16,
					"interpolation":"STEP",
					"output":27
				},
				{
					"input":21,
					"interpolation":"LINEAR",
					"output":28
				},
				{
					"input":16,
					"interpolation":"LINEAR",
					"output":29
				},
				{
					"input":16,
					"interpolation":"STEP",
					"output":30
				},
				{
					"input":16,
					"interpolation":"STEP",
					"output":31
				},
				{
					"input":16,
					"interpolation":"STEP",
					"output":32
				},
				{
					"input":16,
					"interpolation":"STEP",
					"output":33
				},
				{
					"input":16,
					"interpolation":"STEP",
					"output":34
				},
				{
					"input":16,
					"interpolation":"STEP",
					"output":35
				}
			]
		}
	],
	"materials":[
		{
			"doubleSided":true,
			"name":"\u30de\u30c6\u30ea\u30a2\u30eb.001",
			"pbrMetallicRoughness":{
				"baseColorFactor":[
					0,
					0,
					0,
					1
				],
				"metallicFactor":0,
				"roughnessFactor":0.5
			}
		},
		{
			"doubleSided":true,
			"name":"Material",
			"pbrMetallicRoughness":{
				"baseColorFactor":[
					0,
					0,
					0,
					1
				],
				"metallicFactor":0,
				"roughnessFactor":0.5
			}
		},
		{
			"doubleSided":true,
			"name":"\u30de\u30c6\u30ea\u30a2\u30eb",
			"pbrMetallicRoughness":{
				"baseColorFactor":[
					0.24695542454719543,
					0.1134704053401947,
					0,
					1
				],
				"metallicFactor":0,
				"roughnessFactor":0.5
			}
		}
	],
	"meshes":[
		{
			"name":"Cube.001",
			"primitives":[
				{
					"attributes":{
						"POSITION":0,
						"NORMAL":1,
						"TEXCOORD_0":2
					},
					"indices":3,
					"material":0
				}
			]
		},
		{
			"name":"Cube.002",
			"primitives":[
				{
					"attributes":{
						"POSITION":4,
						"NORMAL":5,
						"TEXCOORD_0":6
					},
					"indices":7,
					"material":1
				}
			]
		},
		{
			"name":"Cube.004",
			"primitives":[
				{
					"attributes":{
						"POSITION":8,
						"NORMAL":9,
						"TEXCOORD_0":10
					},
					"indices":11,
					"material":1
				},
				{
					"attributes":{
						"POSITION":12,
						"NORMAL":13,
						"TEXCOORD_0":14
					},
					"indices":15,
					"material":2
				}
			]
		}
	],
	"skins":[
		{
			"inverseBindMatrices":36,
			"joints":[
				7,
				2,
				0,
				5,
				3
			],
			"name":"Helicopter"
		}
	],
	"accessors":[
		{
			"bufferView":0,
			"componentType":5126,
			"count":520,
			"max":[
				6.261257171630859,
				0.9499669075012207,
				6.261255741119385
			],
			"min":[
				-6.261256217956543,
				-0.5015463829040527,
				-6.261256694793701
			],
			"type":"VEC3"
		},
		{
			"bufferView":1,
			"componentType":5126,
			"count":520,
			"type":"VEC3"
		},
		{
			"bufferView":2,
			"componentType":5126,
			"count":520,
			"type":"VEC2"
		},
		{
			"bufferView":3,
			"componentType":5123,
			"count":780,
			"type":"SCALAR"
		},
		{
			"bufferView":4,
			"componentType":5126,
			"count":392,
			"max":[
				0.06594787538051605,
				0.5655202865600586,
				0.5655207633972168
			],
			"min":[
				-0.16422080993652344,
				-0.5655193328857422,
				-0.5655193328857422
			],
			"type":"VEC3"
		},
		{
			"bufferView":5,
			"componentType":5126,
			"count":392,
			"type":"VEC3"
		},
		{
			"bufferView":6,
			"componentType":5126,
			"count":392,
			"type":"VEC2"
		},
		{
			"bufferView":7,
			"componentType":5123,
			"count":588,
			"type":"SCALAR"
		},
		{
			"bufferView":8,
			"componentType":5126,
			"count":2259,
			"max":[
				2.597858190536499,
				2.84877347946167,
				4.025119304656982
			],
			"min":[
				-2.597858190536499,
				0.055840492248535156,
				-7.180457592010498
			],
			"type":"VEC3"
		},
		{
			"bufferView":9,
			"componentType":5126,
			"count":2259,
			"type":"VEC3"
		},
		{
			"bufferView":10,
			"componentType":5126,
			"count":2259,
			"type":"VEC2"
		},
		{
			"bufferView":11,
			"componentType":5123,
			"count":4596,
			"type":"SCALAR"
		},
		{
			"bufferView":12,
			"componentType":5126,
			"count":32,
			"max":[
				1.056248664855957,
				2.0605387687683105,
				3.5259454250335693
			],
			"min":[
				-1.056248664855957,
				0.6650887727737427,
				1.8013317584991455
			],
			"type":"VEC3"
		},
		{
			"bufferView":13,
			"componentType":5126,
			"count":32,
			"type":"VEC3"
		},
		{
			"bufferView":14,
			"componentType":5126,
			"count":32,
			"type":"VEC2"
		},
		{
			"bufferView":15,
			"componentType":5123,
			"count":48,
			"type":"SCALAR"
		},
		{
			"bufferView":16,
			"componentType":5126,
			"count":2,
			"max":[
				0.8333333333333334
			],
			"min":[
				0.041666666666666664
			],
			"type":"SCALAR"
		},
		{
			"bufferView":17,
			"componentType":5126,
			"count":2,
			"type":"VEC3"
		},
		{
			"bufferView":18,
			"componentType":5126,
			"count":2,
			"type":"VEC4"
		},
		{
			"bufferView":19,
			"componentType":5126,
			"count":2,
			"type":"VEC3"
		},
		{
			"bufferView":20,
			"componentType":5126,
			"count":2,
			"type":"VEC3"
		},
		{
			"bufferView":21,
			"componentType":5126,
			"count":20,
			"max":[
				0.8333333333333334
			],
			"min":[
				0.041666666666666664
			],
			"type":"SCALAR"
		},
		{
			"bufferView":22,
			"componentType":5126,
			"count":20,
			"type":"VEC4"
		},
		{
			"bufferView":23,
			"componentType":5126,
			"count":2,
			"type":"VEC3"
		},
		{
			"bufferView":24,
			"componentType":5126,
			"count":2,
			"type":"VEC3"
		},
		{
			"bufferView":25,
			"componentType":5126,
			"count":2,
			"type":"VEC4"
		},
		{
			"bufferView":26,
			"componentType":5126,
			"count":2,
			"type":"VEC3"
		},
		{
			"bufferView":27,
			"componentType":5126,
			"count":2,
			"type":"VEC3"
		},
		{
			"bufferView":28,
			"componentType":5126,
			"count":20,
			"type":"VEC4"
		},
		{
			"bufferView":29,
			"componentType":5126,
			"count":2,
			"type":"VEC3"
		},
		{
			"bufferView":30,
			"componentType":5126,
			"count":2,
			"type":"VEC3"
		},
		{
			"bufferView":31,
			"componentType":5126,
			"count":2,
			"type":"VEC4"
		},
		{
			"bufferView":32,
			"componentType":5126,
			"count":2,
			"type":"VEC3"
		},
		{
			"bufferView":33,
			"componentType":5126,
			"count":2,
			"type":"VEC3"
		},
		{
			"bufferView":34,
			"componentType":5126,
			"count":2,
			"type":"VEC4"
		},
		{
			"bufferView":35,
			"componentType":5126,
			"count":2,
			"type":"VEC3"
		},
		{
			"bufferView":36,
			"componentType":5126,
			"count":5,
			"type":"MAT4"
		}
	],
	"bufferViews":[
		{
			"buffer":0,
			"byteLength":6240,
			"byteOffset":0,
			"target":34962
		},
		{
			"buffer":0,
			"byteLength":6240,
			"byteOffset":6240,
			"target":34962
		},
		{
			"buffer":0,
			"byteLength":4160,
			"byteOffset":12480,
			"target":34962
		},
		{
			"buffer":0,
			"byteLength":1560,
			"byteOffset":16640,
			"target":34963
		},
		{
			"buffer":0,
			"byteLength":4704,
			"byteOffset":18200,
			"target":34962
		},
		{
			"buffer":0,
			"byteLength":4704,
			"byteOffset":22904,
			"target":34962
		},
		{
			"buffer":0,
			"byteLength":3136,
			"byteOffset":27608,
			"target":34962
		},
		{
			"buffer":0,
			"byteLength":1176,
			"byteOffset":30744,
			"target":34963
		},
		{
			"buffer":0,
			"byteLength":27108,
			"byteOffset":31920,
			"target":34962
		},
		{
			"buffer":0,
			"byteLength":27108,
			"byteOffset":59028,
			"target":34962
		},
		{
			"buffer":0,
			"byteLength":18072,
			"byteOffset":86136,
			"target":34962
		},
		{
			"buffer":0,
			"byteLength":9192,
			"byteOffset":104208,
			"target":34963
		},
		{
			"buffer":0,
			"byteLength":384,
			"byteOffset":113400,
			"target":34962
		},
		{
			"buffer":0,
			"byteLength":384,
			"byteOffset":113784,
			"target":34962
		},
		{
			"buffer":0,
			"byteLength":256,
			"byteOffset":114168,
			"target":34962
		},
		{
			"buffer":0,
			"byteLength":96,
			"byteOffset":114424,
			"target":34963
		},
		{
			"buffer":0,
			"byteLength":8,
			"byteOffset":114520
		},
		{
			"buffer":0,
			"byteLength":24,
			"byteOffset":114528
		},
		{
			"buffer":0,
			"byteLength":32,
			"byteOffset":114552
		},
		{
			"buffer":0,
			"byteLength":24,
			"byteOffset":114584
		},
		{
			"buffer":0,
			"byteLength":24,
			"byteOffset":114608
		},
		{
			"buffer":0,
			"byteLength":80,
			"byteOffset":114632
		},
		{
			"buffer":0,
			"byteLength":320,
			"byteOffset":114712
		},
		{
			"buffer":0,
			"byteLength":24,
			"byteOffset":115032
		},
		{
			"buffer":0,
			"byteLength":24,
			"byteOffset":115056
		},
		{
			"buffer":0,
			"byteLength":32,
			"byteOffset":115080
		},
		{
			"buffer":0,
			"byteLength":24,
			"byteOffset":115112
		},
		{
			"buffer":0,
			"byteLength":24,
			"byteOffset":115136
		},
		{
			"buffer":0,
			"byteLength":320,
			"byteOffset":115160
		},
		{
			"buffer":0,
			"byteLength":24,
			"byteOffset":115480
		},
		{
			"buffer":0,
			"byteLength":24,
			"byteOffset":115504
		},
		{
			"buffer":0,
			"byteLength":32,
			"byteOffset":115528
		},
		{
			"buffer":0,
			"byteLength":24,
			"byteOffset":115560
		},
		{
			"buffer":0,
			"byteLength":24,
			"byteOffset":115584
		},
		{
			"buffer":0,
			"byteLength":32,
			"byteOffset":115608
		},
		{
			"buffer":0,
			"byteLength":24,
			"byteOffset":115640
		},
		{
			"buffer":0,
			"byteLength":320,
			"byteOffset":115664
		}
	],
	"buffers":[
		{
			"byteLength":115984,
			"uri":"Helicopter.bin"
		}
	]
}
